<?xml version="1.0" standalone="no"?>
<!DOCTYPE svg PUBLIC "-//W3C//DTD SVG 20010904//EN"
 "http://www.w3.org/TR/2001/REC-SVG-20010904/DTD/svg10.dtd">
<svg version="1.0" xmlns="http://www.w3.org/2000/svg"
 width="463.000000pt" height="463.000000pt" viewBox="0 0 463.000000 463.000000"
 preserveAspectRatio="xMidYMid meet">
<metadata>
Created by potrace 1.14, written by Peter Selinger 2001-2017
</metadata>
<g transform="translate(0.000000,463.000000) scale(0.100000,-0.100000)"
fill="#000000" stroke="none">
<path d="M0 4474 l0 -87 78 6 c57 5 72 4 59 -4 -11 -6 -45 -13 -78 -16 l-59
-6 0 -163 c0 -146 2 -163 18 -167 16 -4 16 -5 0 -6 -17 -1 -18 -102 -18 -1976
l0 -1975 251 2 251 3 32 95 c17 53 43 116 57 140 15 25 36 67 48 94 22 50 118
217 131 226 19 14 210 232 243 277 21 28 42 53 47 55 5 2 30 23 57 48 57 54
201 166 260 203 23 15 62 32 87 38 25 6 46 13 46 16 0 2 -8 16 -17 30 l-18 26
28 -17 c15 -10 27 -26 27 -36 0 -10 8 -24 17 -31 11 -10 14 -10 9 -1 -4 6 -2
12 4 12 19 0 48 -34 52 -60 2 -14 9 -24 15 -23 7 2 10 -4 7 -12 -4 -10 -2 -13
8 -10 8 3 21 -1 28 -10 7 -8 9 -15 5 -15 -9 0 41 -62 98 -122 25 -26 48 -56
52 -67 3 -11 15 -23 26 -26 31 -10 43 -41 22 -63 -32 -32 -73 -98 -73 -116 0
-11 -7 -24 -15 -30 -9 -6 -17 -25 -19 -43 -4 -32 -34 -95 -49 -101 -4 -2 -5
-7 -2 -12 2 -4 -6 -38 -20 -76 -24 -69 -89 -301 -101 -361 -4 -21 -2 -33 4
-33 13 0 13 1 52 170 34 149 70 262 99 312 11 18 31 53 45 78 15 25 42 76 62
114 l36 69 14 -29 c9 -16 19 -31 24 -34 4 -3 24 -36 44 -73 32 -59 117 -157
137 -157 4 0 44 -73 88 -163 45 -89 85 -169 90 -177 5 -8 15 -28 22 -43 10
-22 17 -27 34 -21 42 14 107 13 131 -3 23 -14 24 -14 24 6 0 29 16 27 24 -3 7
-28 45 -43 95 -37 5 1 13 10 16 22 14 42 70 116 147 191 43 42 78 81 78 87 0
5 19 31 41 58 23 26 49 63 57 83 8 19 32 65 54 103 21 37 53 100 69 140 17 39
36 86 43 102 8 17 33 84 56 150 54 154 78 199 134 262 25 27 42 54 38 57 -4 4
-1 6 7 4 17 -4 67 65 52 70 -16 5 -13 29 3 35 11 4 13 1 10 -11 -5 -14 -4 -15
5 -2 21 30 43 124 37 162 -4 22 0 52 8 75 25 66 28 109 10 162 -15 48 -47 81
-77 81 -9 0 -17 30 -26 105 -7 57 -10 108 -7 114 4 5 20 12 36 16 70 15 112
84 75 121 -8 9 -15 11 -15 5 0 -6 -6 -8 -14 -5 -8 3 -13 16 -12 28 1 20 4 22
24 13 12 -6 22 -16 22 -24 0 -19 10 -16 37 9 l23 22 30 -22 c16 -12 37 -22 48
-22 10 0 24 -6 31 -12 10 -11 17 -8 35 15 12 15 27 27 33 27 6 0 28 -16 48
-35 21 -19 62 -44 92 -55 l55 -20 28 20 c15 11 32 20 38 20 5 0 26 12 48 26
26 18 53 27 86 28 45 1 48 3 48 28 0 15 -4 30 -10 33 -18 11 -10 24 30 51 l41
27 43 -21 c48 -24 71 -27 82 -11 4 6 20 9 39 6 32 -5 55 2 58 19 2 11 66 44
84 44 7 0 13 -4 13 -10 0 -5 7 -10 15 -10 8 0 15 5 15 10 0 6 11 10 25 10 l25
0 0 1015 c0 896 -2 1015 -15 1015 -8 0 -15 5 -15 10 0 6 7 10 15 10 8 0 15 9
15 20 0 20 -7 20 -670 20 -440 0 -670 -3 -670 -10 0 -5 -5 -10 -11 -10 -5 0
-8 4 -5 9 4 6 -65 8 -171 6 -98 -2 -189 -3 -203 -3 -14 0 -345 2 -737 4 -477
3 -714 1 -718 -6 -9 -14 -42 -13 -48 3 -3 10 -9 10 -26 0 -11 -7 -38 -12 -58
-12 l-38 2 35 7 c23 5 -5 8 -83 9 -84 1 -116 -2 -111 -10 5 -8 -7 -9 -42 -4
-27 4 -280 9 -561 11 l-513 4 0 -86z m1218 69 c-16 -2 -40 -2 -55 0 -16 2 -3
4 27 4 30 0 43 -2 28 -4z m-1023 -13 c14 -6 1 -9 -43 -9 -40 -1 -61 3 -57 9 7
12 72 12 100 0z m328 -15 c61 -11 105 -13 149 -7 66 9 186 7 196 -2 3 -3 -2
-6 -12 -6 -9 0 -14 -4 -11 -10 3 -5 16 -10 29 -10 30 0 38 -9 21 -26 -16 -17
-270 -20 -280 -4 -4 6 36 9 112 7 69 -1 118 2 118 7 0 6 -11 11 -25 12 -14 2
-41 6 -60 10 -43 8 -175 6 -250 -2 -48 -6 -53 -5 -42 8 10 13 8 16 -16 21 -16
3 -38 3 -50 0 -11 -2 -29 0 -39 6 -28 16 57 14 160 -4z m2861 -26 c-3 -5 2 -9
10 -9 9 0 16 5 16 10 0 6 26 10 59 10 52 0 59 -2 54 -18 -4 -16 -13 -18 -66
-14 -66 4 -127 19 -127 31 0 4 13 6 30 3 16 -2 27 -8 24 -13z m606 11 c-19
-13 -30 -13 -30 0 0 6 10 10 23 10 18 0 19 -2 7 -10z m573 3 c-7 -2 -19 -2
-25 0 -7 3 -2 5 12 5 14 0 19 -2 13 -5z m-764 -7 c-10 -9 -139 -15 -134 -6 3
6 36 10 72 10 37 0 64 -2 62 -4z m-3452 -22 c-3 -3 -12 -4 -19 -1 -8 3 -5 6 6
6 11 1 17 -2 13 -5z m1741 -1 c-10 -2 -26 -2 -35 0 -10 3 -2 5 17 5 19 0 27
-2 18 -5z m2336 -14 c8 -9 1 -10 -29 -4 -54 9 -74 30 -21 22 22 -4 44 -11 50
-18z m-4234 1 c-8 -5 -37 -9 -65 -9 -40 1 -45 3 -25 9 38 12 109 12 90 0z
m2915 0 c-3 -5 -10 -10 -16 -10 -5 0 -9 5 -9 10 0 6 7 10 16 10 8 0 12 -4 9
-10z m530 -16 c34 -11 64 -13 114 -8 46 4 71 3 75 -5 5 -8 -13 -11 -61 -12
-37 0 -77 -2 -88 -5 -34 -7 -275 8 -275 17 0 5 27 9 60 9 33 0 60 4 60 10 0
15 63 12 115 -6z m-2660 -12 c-3 -3 -11 0 -18 7 -9 10 -8 11 6 5 10 -3 15 -9
12 -12z m282 3 c25 -11 33 -19 26 -26 -7 -7 -18 -6 -36 2 -20 9 -36 9 -64 1
-21 -6 -68 -9 -105 -7 -41 3 -68 0 -68 -5 0 -6 -24 -10 -52 -9 -49 1 -50 2
-20 9 19 4 39 13 45 19 6 6 30 11 54 11 24 0 43 5 43 10 0 16 136 12 177 -5z
m1039 2 c15 -14 -5 -18 -42 -8 -25 7 -42 7 -48 1 -13 -13 -56 -13 -56 -1 0 5
6 12 13 15 16 7 125 2 133 -7z m164 3 c0 -5 -7 -7 -15 -4 -8 4 -15 8 -15 10 0
2 7 4 15 4 8 0 15 -4 15 -10z m330 0 c8 -5 11 -10 5 -10 -5 0 -17 5 -25 10 -8
5 -10 10 -5 10 6 0 17 -5 25 -10z m168 -5 c19 -5 21 -9 11 -21 -8 -10 -25 -13
-53 -10 -23 2 -49 5 -58 5 -10 1 -18 6 -18 12 0 7 10 9 24 7 16 -3 27 0 30 9
3 8 14 12 23 9 10 -2 28 -7 41 -11z m330 8 c-16 -2 -40 -2 -55 0 -16 2 -3 4
27 4 30 0 43 -2 28 -4z m1202 -8 c7 -8 26 -15 42 -15 17 0 27 -4 23 -10 -9
-14 -115 -13 -115 1 0 6 9 9 20 6 22 -6 29 18 8 26 -8 4 -9 6 -2 6 6 1 17 -6
24 -14z m-2117 -2 c-7 -2 -19 -2 -25 0 -7 3 -2 5 12 5 14 0 19 -2 13 -5z
m-873 -13 c11 -7 -3 -10 -47 -10 -50 0 -65 -4 -75 -19 -17 -24 -84 -28 -193
-13 l-70 10 85 1 c103 1 153 6 171 16 10 7 8 10 -7 16 -11 5 8 8 51 8 39 0 77
-4 85 -9z m1868 1 c10 -6 8 -10 -10 -14 -41 -12 -55 -8 -34 8 23 17 26 18 44
6z m-1805 -8 c-7 -2 -21 -2 -30 0 -10 3 -4 5 12 5 17 0 24 -2 18 -5z m246 -17
l43 -13 -28 -11 c-21 -9 -39 -9 -64 -2 -19 5 -47 10 -61 10 -15 0 -32 6 -38
14 -10 12 -6 15 26 19 40 4 51 3 122 -17z m1350 11 c61 -1 111 -5 111 -9 0 -8
-80 -16 -180 -18 -101 -2 -99 -3 -93 20 4 15 11 18 28 14 13 -3 73 -7 134 -7z
m1091 -9 c-92 -25 -140 -31 -172 -21 -31 10 -29 11 32 13 36 1 74 5 85 10 11
5 36 8 55 8 l35 0 -35 -10z m-3960 -9 c3 -1 28 -1 55 0 28 0 66 -3 85 -9 26
-7 2 -8 -90 -5 -69 3 -138 9 -155 14 -23 7 -15 8 35 6 36 -2 67 -5 70 -6z
m420 -3 c0 -2 -18 -6 -40 -8 -22 -2 -40 0 -40 4 0 5 18 8 40 8 22 0 40 -2 40
-4z m725 -6 c18 -7 19 -8 3 -15 -21 -8 -48 0 -48 15 0 12 17 12 45 0z m2130 0
c18 -8 17 -9 -7 -9 -16 -1 -28 4 -28 9 0 12 8 12 35 0z m-2995 -10 c-37 -12
-82 -12 -75 0 3 6 27 10 53 9 38 -1 42 -2 22 -9z m1760 -10 c28 -24 29 -24
-40 0 -54 18 -54 19 -19 19 22 1 45 -7 59 -19z m193 3 c-7 -2 -19 -2 -25 0 -7
3 -2 5 12 5 14 0 19 -2 13 -5z m200 0 c-13 -2 -35 -2 -50 0 -16 2 -5 4 22 4
28 0 40 -2 28 -4z m1692 -3 l20 -9 -20 0 c-11 0 -27 4 -35 9 -13 9 -13 10 0 9
8 0 24 -4 35 -9z m-340 -24 c-38 -6 -75 -15 -82 -19 -6 -4 -22 -3 -35 2 -39
15 15 29 117 29 l70 0 -70 -12z m510 -5 l40 -9 -52 -1 c-28 0 -55 4 -58 9 -7
12 15 12 70 1z m-2075 -17 c0 -2 -12 -4 -27 -4 -21 0 -24 3 -14 9 13 8 41 5
41 -5z m190 6 c21 -7 18 -8 -18 -9 -26 -1 -41 3 -37 9 7 11 19 11 55 0z m1193
3 c-7 -2 -19 -2 -25 0 -7 3 -2 5 12 5 14 0 19 -2 13 -5z m-1315 -10 c-10 -2
-28 -2 -40 0 -13 2 -5 4 17 4 22 1 32 -1 23 -4z m222 -3 c0 -5 -17 -10 -37 -9
-31 0 -34 2 -18 9 28 12 55 12 55 0z m1258 -40 c28 0 52 -4 52 -9 0 -13 -176
4 -184 18 -3 5 14 5 37 0 23 -4 66 -8 95 -9z m137 -10 c3 -5 -9 -9 -30 -8 -19
1 -35 5 -35 10 0 11 57 10 65 -2z m312 -6 c-3 -3 -12 -4 -19 -1 -8 3 -5 6 6 6
11 1 17 -2 13 -5z m-571 -80 c18 -14 16 -15 -21 -9 -51 8 -70 25 -29 25 17 0
39 -7 50 -16z m441 10 c-3 -3 -12 -4 -19 -1 -8 3 -5 6 6 6 11 1 17 -2 13 -5z
m-372 -53 c28 11 144 11 126 0 -8 -5 -39 -9 -70 -10 -31 -1 -65 -2 -75 -4 -10
-1 -21 5 -24 13 -4 12 -2 13 9 4 8 -7 22 -8 34 -3z m558 2 c-7 -2 -21 -2 -30
0 -10 3 -4 5 12 5 17 0 24 -2 18 -5z m-516 -39 c-3 -3 -12 -4 -19 -1 -8 3 -5
6 6 6 11 1 17 -2 13 -5z m-3964 -51 c-7 -2 -19 -2 -25 0 -7 3 -2 5 12 5 14 0
19 -2 13 -5z m3507 -152 c12 -1 12 -4 -2 -12 -19 -10 -88 -2 -88 11 0 6 40 7
90 1z m-307 -108 c39 -6 62 -23 30 -23 -23 0 -90 24 -100 35 -5 4 1 5 12 1 11
-5 37 -10 58 -13z m147 -3 c12 -8 11 -10 -5 -9 -11 1 -31 5 -45 9 -24 8 -24 8
5 9 17 0 37 -4 45 -9z m-1054 -45 c10 -8 26 -15 35 -15 17 0 114 -62 164 -104
l29 -25 -22 -30 c-28 -38 -28 -43 1 -41 12 1 27 2 32 1 10 -1 45 -52 45 -65 0
-3 -48 -6 -107 -6 -120 0 -314 -15 -383 -30 -25 -5 -56 -12 -70 -14 -14 -2
-36 -7 -50 -10 -14 -3 -38 -7 -55 -10 -46 -7 -246 -45 -287 -55 -35 -8 -37 -7
-28 9 6 10 10 33 10 50 0 17 9 50 20 72 11 23 20 48 20 57 0 13 58 111 66 111
2 0 1 -8 -2 -17 -5 -15 -3 -15 10 2 9 11 14 25 12 31 -3 7 2 18 10 24 8 7 14
9 14 4 0 -4 6 1 14 12 8 10 17 16 20 13 4 -3 -7 -23 -24 -44 -26 -33 -37 -55
-27 -55 2 0 19 20 37 45 19 25 39 44 44 42 6 -2 18 5 26 16 15 18 16 18 16 -2
0 -12 -4 -21 -9 -21 -4 0 -5 -5 -2 -10 4 -7 16 -3 33 8 51 36 55 36 47 12 -6
-20 -4 -22 13 -18 15 4 19 2 15 -9 -3 -8 7 -3 22 11 15 14 35 26 45 26 9 0 25
6 35 14 16 12 21 11 33 -1 16 -16 57 -10 82 12 30 26 88 31 116 10z m-706 -19
c0 -2 -8 -10 -17 -17 -16 -13 -17 -12 -4 4 13 16 21 21 21 13z m950 -161 c0
-9 -9 -15 -21 -15 -18 0 -19 2 -9 15 7 8 16 15 21 15 5 0 9 -7 9 -15z m-450
-176 c0 -5 -5 -7 -11 -3 -7 4 -9 -2 -7 -17 4 -30 -12 -50 -28 -35 -8 8 -7 17
5 35 9 14 11 22 4 18 -6 -4 -14 -3 -18 3 -4 6 6 10 24 10 17 0 31 -5 31 -11z
m-64 -34 c2 -36 -10 -45 -51 -39 -26 3 -27 3 -5 -4 22 -7 44 -45 23 -41 -21 4
-33 -2 -33 -17 0 -13 2 -14 21 0 16 11 26 12 39 4 12 -8 29 -8 56 -1 22 5 48
7 58 3 10 -3 -34 -14 -102 -24 -66 -10 -125 -15 -132 -11 -8 5 -11 4 -7 -3 5
-6 -12 -13 -45 -17 -29 -4 -78 -13 -109 -21 -71 -18 -83 -17 -41 1 18 8 55 17
83 21 36 5 49 11 45 20 -3 7 -1 16 5 20 15 9 -10 34 -35 34 -13 0 -30 -14 -45
-35 -24 -35 -24 -35 -35 -13 -8 16 -21 23 -39 23 -15 -1 -27 3 -27 7 0 8 16
12 33 9 5 -1 5 4 1 10 -4 8 -3 9 4 5 7 -4 12 -5 12 -2 0 2 3 11 6 19 4 12 0
14 -14 10 -11 -2 -23 0 -26 6 -4 7 -1 8 8 5 9 -3 16 -2 16 4 0 5 10 10 23 10
12 0 42 5 67 11 88 22 124 25 115 11 -5 -9 -4 -11 4 -6 6 4 9 11 6 16 -6 9 42
18 90 16 26 -1 30 -5 31 -31z m104 -30 c-6 -7 -8 -19 -5 -27 4 -11 -2 -17 -19
-20 -22 -4 -23 -3 -16 18 6 15 5 25 -3 28 -7 4 -2 4 11 2 14 -3 22 1 22 11 0
8 5 11 10 8 8 -5 8 -11 0 -20z m160 0 c0 -8 -2 -15 -4 -15 -2 0 -6 7 -10 15
-3 8 -1 15 4 15 6 0 10 -7 10 -15z m-770 -5 c0 -5 -2 -10 -4 -10 -3 0 -8 5
-11 10 -3 6 -1 10 4 10 6 0 11 -4 11 -10z m960 -20 c0 -16 -4 -30 -8 -30 -5 0
-7 14 -4 30 2 17 6 30 8 30 2 0 4 -13 4 -30z m-840 10 c-12 -8 -11 -10 8 -10
12 0 22 -5 22 -11 0 -6 -7 -8 -16 -5 -9 4 -22 2 -28 -3 -8 -6 -11 -2 -11 15 0
17 5 24 20 24 17 0 17 -2 5 -10z m530 6 c0 -3 -4 -8 -10 -11 -5 -3 -10 -1 -10
4 0 6 5 11 10 11 6 0 10 -2 10 -4z m-575 -16 c3 -6 -1 -7 -9 -4 -18 7 -21 14
-7 14 6 0 13 -4 16 -10z m453 -2 c-2 -6 -11 -12 -20 -14 -11 -1 -15 3 -11 12
6 17 36 19 31 2z m-448 -32 c0 -3 -4 -8 -10 -11 -5 -3 -10 -1 -10 4 0 6 5 11
10 11 6 0 10 -2 10 -4z m226 -8 c4 -7 4 -10 -1 -6 -4 4 -14 3 -22 -4 -15 -12
-28 -5 -18 11 9 15 32 14 41 -1z m354 -27 c0 -5 -9 -11 -20 -14 -11 -3 -20 -1
-20 3 0 5 8 11 18 13 9 3 18 5 20 6 1 0 2 -3 2 -8z m-58 -8 c-18 -7 -4 -23 21
-24 17 -1 15 -3 -8 -9 -29 -7 -29 -8 10 -10 24 -1 -37 -15 -155 -36 -189 -33
-256 -36 -231 -11 16 16 14 32 -3 18 -7 -6 -20 -9 -28 -6 -8 3 -27 1 -41 -4
-17 -7 -27 -7 -27 -1 0 9 12 12 65 14 11 1 30 7 43 14 12 7 27 10 32 7 6 -3
10 -1 10 4 0 6 9 11 21 11 11 0 17 -4 14 -10 -3 -5 1 -10 10 -10 9 0 14 4 10
9 -7 12 16 19 113 36 76 12 169 18 144 8z m-517 -14 c11 -16 1 -19 -13 -3 -7
8 -8 14 -3 14 5 0 13 -5 16 -11z m99 2 c3 -5 0 -11 -8 -14 -15 -6 -26 1 -26
15 0 11 27 10 34 -1z m-107 -46 c0 -8 -4 -12 -9 -9 -5 3 -6 10 -3 15 9 13 12
11 12 -6z m934 -2 c33 -7 33 -7 9 -15 -15 -4 0 -6 37 -2 38 3 64 1 68 -6 3 -6
11 -8 16 -5 5 4 9 1 9 -5 0 -5 12 -10 28 -9 15 1 38 -3 52 -9 l25 -11 -25 0
c-14 -1 -35 -8 -47 -16 -14 -10 -24 -12 -28 -5 -8 12 -35 13 -35 1 0 -10 58
-35 79 -34 9 1 10 -2 3 -9 -8 -8 -21 -6 -45 6 -36 17 -79 21 -91 9 -3 -4 -16
-8 -29 -10 -21 -4 -21 -3 -2 12 19 15 18 16 -15 9 -19 -3 -36 -10 -38 -15 -2
-5 -11 -9 -20 -10 -11 0 -9 -3 7 -10 13 -5 22 -11 20 -13 -2 -3 -42 -11 -88
-20 -46 -9 -90 -21 -97 -27 -7 -6 -18 -8 -24 -4 -5 3 -10 2 -10 -4 0 -5 -10
-8 -21 -6 -12 3 -40 0 -63 -6 -23 -6 -48 -11 -56 -11 -8 0 -21 -5 -27 -10 -7
-6 -20 -8 -28 -4 -8 3 -15 2 -15 -3 0 -8 -96 -31 -227 -55 -52 -9 -73 -10 -73
-2 0 7 -3 7 -8 -1 -4 -6 -24 -10 -45 -9 -20 1 -37 -2 -37 -7 0 -4 -11 -5 -25
-3 -15 3 -25 0 -26 -7 0 -9 -2 -8 -6 1 -2 6 -10 9 -16 5 -7 -4 -33 -8 -60 -10
-26 -1 -61 -10 -77 -18 -16 -8 -52 -17 -80 -20 -29 -2 -57 -8 -63 -13 -14 -11
-61 -24 -97 -28 -14 -2 -42 -8 -63 -15 -20 -7 -39 -10 -42 -7 -3 3 1 22 9 44
8 21 15 31 15 22 1 -10 6 -18 12 -18 7 0 9 12 5 34 -6 31 -3 37 40 74 49 41
161 85 254 98 47 6 89 22 152 55 22 12 100 30 195 45 87 13 203 32 258 41 80
12 272 32 401 42 12 0 37 -2 55 -6z m-786 -61 c-3 -3 -11 0 -18 7 -9 10 -8 11
6 5 10 -3 15 -9 12 -12z m1095 -155 c0 -9 -13 -11 -40 -9 -22 2 -40 7 -40 11
0 4 18 7 40 8 26 1 40 -2 40 -10z m-142 -12 c-9 -7 -88 -12 -88 -5 0 10 47 17
73 11 10 -2 16 -5 15 -6z m52 11 c0 -2 -7 -6 -15 -10 -8 -3 -15 -1 -15 4 0 6
7 10 15 10 8 0 15 -2 15 -4z m-175 -16 c-3 -5 -12 -10 -18 -10 -7 0 -6 4 3 10
19 12 23 12 15 0z m545 -16 c0 -2 -9 0 -20 6 -11 6 -20 13 -20 16 0 2 9 0 20
-6 11 -6 20 -13 20 -16z m117 -16 c-3 -8 -6 -5 -6 6 -1 11 2 17 5 13 3 -3 4
-12 1 -19z m-352 2 c-3 -5 -11 -10 -16 -10 -6 0 -7 5 -4 10 3 6 11 10 16 10 6
0 7 -4 4 -10z m-35 -20 c0 -5 -2 -10 -4 -10 -3 0 -8 5 -11 10 -3 6 -1 10 4 10
6 0 11 -4 11 -10z m-112 -55 c-3 -3 -9 2 -12 12 -6 14 -5 15 5 6 7 -7 10 -15
7 -18z m96 12 c16 -12 16 -14 2 -14 -9 0 -16 4 -16 8 0 4 -8 10 -17 12 -14 4
-15 5 -2 6 8 0 23 -5 33 -12z m-514 -39 c0 -6 -6 -5 -15 2 -8 7 -15 14 -15 16
0 2 7 1 15 -2 8 -4 15 -11 15 -16z m330 13 c0 -6 -4 -12 -8 -15 -5 -3 -9 1 -9
9 0 8 4 15 9 15 4 0 8 -4 8 -9z m130 5 c0 -2 -7 -7 -16 -10 -8 -3 -12 -2 -9 4
6 10 25 14 25 6z m-60 -16 c0 -5 -5 -10 -11 -10 -5 0 -7 5 -4 10 3 6 8 10 11
10 2 0 4 -4 4 -10z m111 -23 c-10 -9 -11 -8 -5 6 3 10 9 15 12 12 3 -3 0 -11
-7 -18z m51 -17 c-10 -17 -10 -21 5 -27 9 -4 19 -1 21 5 4 14 42 16 42 2 0 -5
-7 -7 -15 -4 -8 4 -17 -1 -21 -9 -4 -13 -11 -13 -36 -5 -32 11 -53 -3 -43 -29
2 -8 -2 -10 -12 -6 -13 5 -15 2 -10 -11 4 -10 3 -15 -4 -11 -12 8 -2 43 17 63
8 7 11 19 8 25 -5 9 -4 9 6 0 17 -16 45 11 35 35 -5 14 -4 15 7 4 10 -10 10
-16 0 -32z m-192 15 c6 -8 9 -19 5 -25 -7 -11 34 -31 48 -23 11 6 9 43 -3 43
-5 0 -10 5 -10 12 0 9 3 9 12 0 9 -9 15 -9 26 1 13 10 14 9 3 -11 -11 -21 -10
-26 8 -38 15 -11 18 -20 12 -37 -4 -12 -6 -27 -4 -34 2 -6 0 -13 -4 -16 -4 -3
-9 9 -10 25 -3 39 -7 42 -32 28 -17 -9 -21 -8 -21 6 0 14 -2 15 -17 3 -15 -12
-16 -12 -10 3 3 10 2 20 -3 23 -5 3 -6 13 -3 22 5 12 2 15 -9 10 -10 -3 -19 0
-22 9 -7 18 18 18 34 -1z m275 3 c2 -7 6 -41 8 -74 5 -60 4 -62 -19 -60 -16 1
-24 7 -24 19 0 10 -4 16 -9 13 -5 -3 -15 2 -22 12 -10 13 -10 14 0 6 23 -21
50 -4 57 34 5 24 3 37 -5 40 -6 2 -11 8 -11 13 0 14 20 11 25 -3z m-45 -8 c0
-5 -5 -10 -11 -10 -5 0 -7 5 -4 10 3 6 8 10 11 10 2 0 4 -4 4 -10z m-107 -14
c4 -10 1 -13 -8 -9 -8 3 -12 9 -9 14 7 12 11 11 17 -5z m-1029 -19 c8 -12 7
-20 -2 -29 -9 -9 -12 -7 -12 10 0 29 -28 18 -36 -14 -3 -13 -10 -24 -15 -24
-5 0 -6 7 -3 15 4 8 2 15 -4 15 -5 0 -12 -9 -15 -20 -3 -11 -10 -20 -16 -20
-8 0 -9 6 -2 19 6 10 7 21 4 25 -3 3 2 15 12 26 22 25 73 23 89 -3z m946 13
c0 -5 -5 -10 -11 -10 -5 0 -7 5 -4 10 3 6 8 10 11 10 2 0 4 -4 4 -10z m-350
-10 c0 -5 -5 -10 -11 -10 -5 0 -7 5 -4 10 3 6 8 10 11 10 2 0 4 -4 4 -10z
m-900 -20 c0 -11 7 -23 15 -26 17 -7 21 -34 4 -34 -5 0 -7 -5 -3 -12 5 -7 3
-8 -7 -2 -19 12 -39 14 -39 4 0 -4 -9 -6 -20 -3 -11 3 -20 8 -20 12 0 4 -9 7
-20 8 -11 1 -20 -2 -20 -7 0 -6 -10 -6 -22 -1 -13 4 -29 6 -35 4 -7 -3 -13 0
-13 7 0 6 -6 10 -12 9 -28 -3 -81 1 -76 7 14 14 123 35 126 25 5 -14 32 -15
32 -1 0 6 -6 11 -12 11 -23 2 46 17 85 18 31 1 37 -2 37 -19z m713 -22 c-2 -5
3 -8 12 -8 9 0 14 -4 10 -10 -8 -12 -35 -1 -35 15 0 7 -7 16 -16 19 -8 3 -12
11 -9 17 8 12 45 -21 38 -33z m262 2 c-5 -8 43 -60 55 -60 6 0 9 -3 9 -7 -3
-20 2 -26 11 -13 6 9 10 10 10 3 0 -19 -17 -24 -30 -8 -15 19 -34 20 -27 2 6
-16 -22 -19 -41 -4 -9 7 -8 14 8 27 l21 18 -22 7 c-14 5 -25 2 -31 -6 -8 -11
-9 -11 -5 1 2 8 -4 21 -13 30 -9 8 -10 11 -3 6 8 -5 13 -4 13 2 0 6 -4 14 -10
17 -26 16 -6 23 25 8 19 -9 32 -19 30 -23z m429 -32 c-2 -4 6 -14 18 -22 12
-9 19 -18 16 -21 -3 -3 -20 7 -38 24 -23 20 -31 35 -26 47 6 16 8 16 20 -2 8
-10 12 -22 10 -26z m-825 8 c-7 -7 -104 -19 -98 -12 3 4 26 10 50 15 42 7 58
6 48 -3z m-849 -17 c0 -5 -4 -9 -8 -9 -5 0 -9 7 -9 15 0 8 4 12 9 9 4 -3 8 -9
8 -15z m-76 -30 c-19 -22 -19 -22 4 -10 12 6 22 8 22 3 0 -5 12 -9 27 -9 26 0
53 -25 53 -50 0 -7 7 -13 15 -13 8 0 15 -4 15 -10 0 -5 10 -10 23 -10 12 0 27
-4 32 -8 20 -14 32 -57 24 -80 -6 -15 -5 -21 2 -17 7 5 9 -8 7 -37 l-3 -43
-45 0 c-50 0 -50 1 -36 -85 4 -25 9 -67 12 -95 l5 -50 -26 30 c-52 59 -111
199 -149 351 -21 83 -20 113 6 141 27 29 38 21 12 -8z m1101 21 c3 -5 -1 -10
-10 -10 -9 0 -13 5 -10 10 3 6 8 10 10 10 2 0 7 -4 10 -10z m575 -10 c0 -5 -5
-10 -11 -10 -5 0 -7 5 -4 10 3 6 8 10 11 10 2 0 4 -4 4 -10z m-694 -118 c19
-13 124 -174 119 -182 -3 -5 0 -12 6 -16 8 -5 9 -3 4 6 -6 9 -4 11 5 5 10 -6
8 -12 -8 -24 -11 -9 -24 -28 -27 -43 -4 -16 -11 -25 -16 -22 -5 3 -6 -2 -3
-10 3 -9 10 -13 15 -10 5 3 9 0 9 -6 0 -6 4 -9 9 -5 20 12 29 -30 18 -83 -9
-41 -8 -58 2 -73 10 -17 10 -24 -2 -37 -8 -10 -17 -29 -20 -43 -4 -14 -18 -31
-32 -39 -14 -7 -25 -17 -25 -22 0 -4 -11 -8 -24 -8 -13 0 -29 -6 -35 -14 -18
-22 -70 -30 -97 -16 -13 7 -21 16 -19 20 3 4 -2 13 -10 20 -13 10 -19 10 -34
-4 -20 -18 -70 -19 -83 -1 -4 5 -10 7 -13 3 -3 -3 3 -21 14 -39 25 -41 27 -64
5 -55 -9 3 -21 3 -27 -1 -7 -4 -14 -8 -17 -8 -21 -1 -81 -49 -86 -69 -6 -26
-24 -36 -24 -14 0 6 -13 -1 -30 -17 -34 -33 -36 -31 -15 19 9 22 20 34 27 30
6 -4 9 -1 6 7 -8 23 61 145 90 160 15 7 29 14 31 16 2 1 5 18 8 38 3 30 1 35
-17 35 -37 0 -240 -201 -240 -237 0 -7 -4 -13 -8 -13 -5 0 -22 -20 -40 -45
-17 -25 -38 -45 -47 -45 -8 0 -15 -9 -15 -19 0 -36 -16 -31 -34 11 -17 37 -70
98 -86 98 -4 0 -10 18 -14 40 -3 22 -10 40 -15 40 -12 0 -32 85 -25 107 5 15
4 15 -5 3 -6 -8 -11 -11 -11 -6 0 5 -8 2 -17 -5 -15 -12 -16 -12 -10 4 4 12 1
17 -9 17 -12 0 -15 7 -12 24 3 13 -1 31 -8 40 -10 14 -11 3 -8 -60 2 -42 7
-81 11 -88 4 -6 10 -32 13 -58 l6 -48 -33 0 c-39 0 -83 37 -83 70 0 18 22 68
65 150 10 18 10 31 3 43 -5 10 -8 27 -5 38 3 12 1 17 -5 13 -7 -5 -9 2 -6 20
3 14 1 26 -3 26 -5 0 -9 8 -8 18 0 13 5 10 22 -12 12 -16 36 -46 52 -65 17
-20 39 -53 49 -73 10 -21 27 -40 37 -43 11 -4 52 1 92 9 39 8 114 20 165 26
206 23 251 42 277 112 7 18 28 71 48 118 19 47 51 129 72 183 21 54 45 102 54
107 19 11 62 13 77 2z m-692 -109 c4 -5 11 -8 14 -8 4 -1 17 -4 30 -9 17 -6
21 -13 17 -29 l-6 -22 13 22 c16 26 45 16 34 -12 -3 -10 -9 -15 -13 -12 -3 4
-12 2 -19 -4 -8 -6 -21 -9 -29 -5 -8 3 -15 0 -15 -7 0 -8 -3 -8 -9 2 -5 7 -13
11 -19 7 -23 -14 -42 6 -42 45 0 31 4 39 18 39 10 0 22 -3 26 -7z m1496 -69
c-14 -15 -57 -36 -101 -48 -24 -7 10 15 76 48 38 19 40 19 25 0z m-1597 -74
c7 0 17 -11 24 -25 6 -14 7 -23 2 -19 -5 3 -6 -2 -3 -10 3 -9 2 -16 -4 -16
-22 0 -42 13 -42 26 0 8 -4 14 -10 14 -6 0 -5 11 2 26 7 15 14 21 16 15 2 -6
9 -11 15 -11z m71 -19 c3 -5 16 -7 28 -3 17 4 20 2 15 -11 -3 -9 -2 -19 3 -22
5 -3 12 4 15 16 5 15 10 18 18 10 12 -12 -20 -94 -33 -86 -11 7 -21 -22 -14
-39 4 -9 -3 -13 -20 -13 -25 0 -27 3 -30 49 -1 9 -3 19 -6 22 -3 3 -4 23 -2
45 4 39 14 52 26 32z m937 -8 c13 -16 12 -17 -3 -4 -10 7 -18 15 -18 17 0 8 8
3 21 -13z m1042 4 c19 -10 23 -17 15 -30 -13 -25 -25 -21 -37 13 -12 34 -12
34 22 17z m-1005 -42 c-3 -3 -9 2 -12 12 -6 14 -5 15 5 6 7 -7 10 -15 7 -18z
m-528 -5 c-1 -9 -27 -40 -34 -40 -4 0 -5 4 -1 9 3 5 1 12 -5 16 -15 10 -2 24
20 22 11 -1 20 -4 20 -7z m1115 0 c11 -5 15 -9 8 -9 -6 -1 -14 -14 -18 -30 -3
-16 -17 -41 -31 -56 -13 -14 -24 -33 -24 -41 0 -7 -5 -14 -11 -14 -6 0 -22 -9
-36 -20 -14 -11 -41 -20 -59 -20 -47 0 -284 115 -267 130 4 4 55 17 113 29 58
13 121 27 140 31 48 11 161 11 185 0z m248 -10 c3 -11 1 -18 -4 -14 -5 3 -9
12 -9 20 0 20 7 17 13 -6z m-1855 -51 c1 -42 -2 -50 -16 -47 -12 2 -17 14 -19
43 -1 22 1 32 4 22 2 -9 9 -15 14 -12 5 4 5 14 -1 26 -8 15 -7 19 4 19 10 0
14 -13 14 -51z m1042 -15 c0 -8 -4 -12 -10 -9 -5 3 -10 13 -10 21 0 8 5 12 10
9 6 -3 10 -13 10 -21z m-930 -5 c0 -6 -4 -7 -10 -4 -5 3 -10 11 -10 16 0 6 5
7 10 4 6 -3 10 -11 10 -16z m1790 1 c0 -5 -4 -10 -10 -10 -5 0 -10 5 -10 10 0
6 5 10 10 10 6 0 10 -4 10 -10z m-932 -39 c3 -30 2 -32 -17 -21 -20 10 -28 40
-14 54 14 13 28 -1 31 -33z m938 -38 c2 -21 6 -57 9 -80 4 -28 2 -43 -4 -43
-6 0 -11 18 -11 41 0 23 -7 47 -15 55 -17 18 -20 34 -4 34 5 0 7 5 4 10 -7 11
4 34 12 26 3 -3 7 -22 9 -43z m-1757 11 c8 -8 -124 -3 -144 6 -13 6 10 7 60 4
43 -3 81 -7 84 -10z m61 6 c0 -5 -5 -10 -11 -10 -5 0 -7 5 -4 10 3 6 8 10 11
10 2 0 4 -4 4 -10z m994 -23 c14 -8 22 -17 18 -21 -4 -4 2 -14 12 -22 11 -7
16 -17 13 -21 -4 -3 2 -17 14 -29 12 -13 16 -24 10 -28 -5 -4 -15 3 -21 14 -6
11 -15 20 -21 20 -6 0 -7 -5 -3 -12 4 -6 3 -8 -4 -5 -5 4 -8 17 -4 29 3 14 2
19 -6 14 -7 -4 -12 -14 -12 -21 0 -9 -6 -12 -15 -9 -10 4 -15 0 -15 -12 0 -28
-15 -4 -29 45 -10 35 -10 45 0 52 7 4 17 5 21 3 4 -3 8 0 8 5 0 14 2 14 34 -2z
m77 -74 c13 -16 12 -17 -3 -4 -17 13 -22 21 -14 21 2 0 10 -8 17 -17z m79 -73
c0 -5 -2 -10 -4 -10 -3 0 -8 5 -11 10 -3 6 -1 10 4 10 6 0 11 -4 11 -10z
m-170 -30 c0 -5 -2 -10 -4 -10 -3 0 -8 5 -11 10 -3 6 -1 10 4 10 6 0 11 -4 11
-10z m723 -82 c-3 -42 -16 -103 -30 -143 -14 -38 -32 -88 -40 -109 -8 -22 -23
-59 -34 -82 -10 -24 -19 -53 -19 -66 -1 -23 -21 -58 -34 -58 -11 0 -7 38 5 46
8 4 7 9 -2 15 -11 6 -10 18 4 62 9 29 17 59 17 65 0 10 39 103 61 144 5 10 9
30 9 45 0 16 7 39 15 53 20 35 23 42 34 73 6 15 12 27 14 27 3 0 2 -33 0 -72z
m-1438 13 c-3 -6 -11 -11 -17 -11 -6 0 -6 6 2 15 14 17 26 13 15 -4z m1477
-117 l-10 -49 -1 46 c0 25 2 68 7 95 l7 49 3 -46 c2 -25 -1 -68 -6 -95z m-210
44 c-9 -32 -10 -31 -10 22 -1 46 1 52 10 33 8 -16 8 -32 0 -55z m-1310 40 c-7
-7 -12 -8 -12 -2 0 6 3 14 7 17 3 4 9 5 12 2 2 -3 -1 -11 -7 -17z m1168 1 c0
-4 -11 -6 -25 -4 -14 1 -25 -2 -25 -6 0 -5 11 -9 25 -9 18 0 25 -5 25 -20 0
-11 -5 -20 -11 -20 -7 0 -9 -12 -7 -32 l5 -32 -28 34 c-29 34 -38 57 -19 45
11 -7 14 8 3 19 -18 18 -8 31 23 32 19 0 34 -3 34 -7z m-1670 -31 c0 -5 -4 -8
-10 -8 -5 0 -10 10 -10 23 0 18 2 19 10 7 5 -8 10 -18 10 -22z m10 -48 c14 23
45 1 78 -56 20 -35 30 -64 27 -75 -4 -13 -1 -19 8 -19 8 0 17 -9 20 -21 3 -12
10 -18 15 -15 13 8 51 -36 51 -59 -1 -11 2 -30 6 -42 7 -21 4 -23 -29 -23 -32
0 -36 3 -33 23 2 12 2 16 0 9 -3 -7 -9 -10 -14 -7 -8 6 -14 -16 -10 -38 3 -14
-22 -2 -27 13 -3 7 0 10 7 6 19 -12 12 29 -9 57 -13 17 -17 28 -10 32 17 10
-18 45 -38 38 -11 -5 -13 -3 -6 8 4 8 7 22 6 32 -2 9 2 17 7 17 6 0 11 4 11 9
0 5 -9 7 -19 4 -13 -3 -18 -12 -16 -30 5 -47 -13 -7 -29 64 -14 64 -21 128 -9
79 4 -14 7 -15 13 -6z m948 -21 c-3 -8 -7 -3 -11 10 -4 17 -3 21 5 13 5 -5 8
-16 6 -23z m-578 11 c0 -5 -5 -10 -11 -10 -5 0 -7 5 -4 10 3 6 8 10 11 10 2 0
4 -4 4 -10z m540 -14 c0 -8 -13 -13 -31 -14 -19 0 -29 4 -26 11 2 7 9 12 15
12 5 0 14 3 18 7 9 10 24 0 24 -16z m520 -18 c0 -23 -34 -88 -47 -88 -17 0
-17 3 10 55 21 43 37 57 37 33z m-273 -91 l10 -22 12 23 c21 40 51 22 51 -30
0 -15 5 -19 18 -14 9 3 -4 -14 -30 -39 -44 -43 -61 -64 -39 -51 5 4 7 -3 4
-14 -3 -11 0 -27 7 -35 10 -12 9 -15 -4 -15 -9 0 -21 -9 -28 -20 -7 -11 -21
-20 -30 -20 -10 0 -18 -5 -18 -11 0 -5 -8 -9 -17 -8 -10 1 -36 -3 -58 -9 -30
-9 -41 -9 -47 1 -5 7 -8 8 -8 1 0 -10 -42 -34 -60 -34 -5 0 -6 7 -3 17 4 9 2
14 -4 10 -20 -12 -66 -16 -84 -6 -11 5 -19 20 -19 32 0 16 -3 18 -9 8 -5 -8
-14 -10 -21 -6 -7 4 -16 2 -21 -6 -14 -22 -31 10 -25 49 4 29 2 32 -20 32 -13
0 -24 2 -24 4 0 2 -3 12 -7 22 -5 14 -2 16 21 10 25 -6 26 -5 16 14 -14 26
-22 25 -53 -6 l-25 -25 -7 66 c-4 36 -5 68 -2 72 3 3 20 -10 38 -28 26 -29 30
-30 24 -11 -8 27 17 41 40 22 12 -10 19 -10 33 2 12 11 52 17 144 21 114 6
128 5 138 -11 10 -15 10 -15 5 4 -4 17 1 22 32 30 46 12 58 9 70 -19z m334 23
c6 0 5 -8 -1 -20 -6 -11 -7 -20 -1 -20 5 0 11 -7 14 -14 4 -10 1 -13 -8 -10
-8 3 -17 14 -20 25 -4 10 -11 19 -16 19 -5 0 -9 7 -9 16 0 11 5 14 16 10 9 -3
20 -6 25 -6z m-1201 -60 c-7 -5 -10 -15 -6 -25 5 -13 3 -15 -6 -8 -7 5 -26 8
-42 7 l-30 -3 27 25 c15 14 32 22 37 19 6 -3 10 2 10 12 1 17 1 17 11 -1 9
-14 8 -20 -1 -26z m1170 18 c0 -6 8 -20 17 -31 12 -13 18 -38 19 -80 1 -34 7
-63 13 -65 6 -2 11 -9 11 -15 0 -8 -3 -8 -12 1 -15 15 -39 -3 -31 -24 3 -8 0
-14 -6 -14 -6 0 -11 -9 -11 -20 0 -11 5 -19 11 -17 6 1 14 -4 16 -11 3 -7 1
-12 -4 -11 -4 1 -16 -1 -25 -5 -22 -10 -24 -36 -3 -36 8 0 15 -5 15 -11 0 -6
-7 -9 -14 -6 -10 4 -13 1 -10 -8 3 -7 -4 -23 -16 -35 -12 -12 -20 -30 -17 -40
2 -10 1 -24 -3 -31 -7 -10 -11 -10 -24 0 -12 10 -16 10 -16 2 0 -7 -5 -9 -12
-5 -7 4 -8 3 -4 -5 8 -12 -14 -71 -26 -71 -4 0 -12 8 -18 18 -9 14 -10 12 -5
-13 4 -24 3 -27 -5 -12 -12 19 -40 23 -40 6 0 -5 5 -7 12 -3 6 4 8 3 4 -4 -3
-6 -18 -9 -31 -6 -14 2 -25 0 -25 -6 0 -16 -17 -12 -24 6 -3 8 -2 12 4 9 6 -4
17 1 26 9 9 9 20 14 25 11 5 -4 9 -1 9 5 0 6 6 8 13 4 6 -4 4 1 -5 11 -16 18
-18 17 -37 -6 -23 -29 -36 -20 -27 18 6 21 9 24 17 12 7 -11 9 -10 9 5 0 15 3
16 15 6 12 -10 15 -9 15 4 0 10 5 14 10 11 6 -3 10 3 10 15 0 16 5 19 23 15
18 -5 23 -2 24 16 1 12 11 30 22 41 12 10 21 26 21 36 0 9 8 31 19 48 20 33
22 80 3 77 -17 -4 -15 15 8 83 11 32 23 72 26 88 3 16 7 33 10 38 8 12 24 10
24 -4z m-907 -81 c9 -4 17 -11 17 -17 0 -6 4 -9 9 -5 13 7 25 -13 26 -45 2
-37 16 -92 22 -87 2 3 21 -13 41 -35 20 -22 47 -44 59 -49 13 -5 23 -16 23
-25 0 -17 -13 -16 -77 2 -26 7 -30 -7 -9 -28 30 -29 57 -48 66 -48 6 0 10 -7
10 -16 0 -12 6 -15 24 -10 15 4 30 0 39 -9 8 -8 17 -12 20 -9 3 3 10 -3 16
-14 10 -18 20 -20 106 -17 52 1 92 -2 89 -6 -6 -11 10 -12 20 -2 13 14 47 13
52 -2 8 -21 24 -19 25 3 0 9 3 12 5 5 3 -7 12 -9 20 -6 8 3 14 1 14 -5 0 -6
-5 -12 -11 -14 -8 -3 -6 -9 4 -20 15 -14 15 -17 1 -22 -8 -3 -12 -2 -9 4 3 6
2 10 -3 10 -5 0 -15 -14 -22 -31 -11 -26 -15 -28 -22 -15 -5 9 -13 14 -19 11
-5 -4 -9 -1 -9 4 0 19 -20 12 -29 -11 -5 -14 -10 -18 -15 -10 -4 7 -13 9 -19
5 -21 -13 -55 -12 -61 3 -3 8 -10 14 -15 14 -6 0 -7 -7 -4 -17 4 -11 3 -14 -5
-9 -7 4 -12 2 -12 -4 0 -7 -8 -9 -20 -5 -16 5 -20 2 -20 -17 -1 -21 -2 -21
-11 -5 -10 18 -12 18 -30 1 -10 -9 -19 -24 -20 -33 0 -10 -3 -11 -5 -4 -3 7
-1 21 5 31 8 15 6 23 -7 35 -15 14 -19 14 -40 -3 -23 -19 -52 -17 -52 4 0 6
-4 5 -9 -3 -7 -11 -16 -7 -45 21 -20 19 -36 40 -36 47 0 6 -7 11 -16 11 -8 0
-12 4 -9 10 3 5 -5 12 -18 15 -20 5 -24 12 -21 36 3 20 -1 29 -11 29 -8 0 -15
5 -15 10 0 6 5 10 12 10 6 0 4 7 -5 18 -10 10 -17 22 -17 27 0 5 -7 17 -17 27
-13 14 -13 18 -2 19 8 1 3 4 -11 8 -16 5 -24 13 -22 25 2 10 -1 23 -7 29 -5 7
-8 31 -6 53 3 23 1 55 -4 71 -7 24 -5 32 10 41 11 7 19 24 19 39 l0 26 23 -20
c12 -11 30 -23 40 -26z m-247 -22 c9 -27 8 -35 -3 -40 -23 -8 -23 -7 -23 35 0
49 11 52 26 5z m319 14 c11 -17 -1 -21 -15 -4 -8 9 -8 15 -2 15 6 0 14 -5 17
-11z m-355 -52 c0 -18 -2 -19 -10 -7 -13 20 -13 43 0 35 6 -3 10 -16 10 -28z
m-180 13 c0 -5 -2 -10 -4 -10 -3 0 -8 5 -11 10 -3 6 -1 10 4 10 6 0 11 -4 11
-10z m255 -88 c-3 -3 -5 2 -5 10 0 9 -7 18 -15 22 -13 5 -13 9 -3 26 12 19 13
18 21 -16 4 -21 5 -39 2 -42z m-1488 -188 c-3 -3 -12 -4 -19 -1 -8 3 -5 6 6 6
11 1 17 -2 13 -5z m323 -164 c0 -5 -4 -10 -10 -10 -5 0 -10 5 -10 10 0 6 5 10
10 10 6 0 10 -4 10 -10z m-260 -104 c0 -3 -4 -8 -10 -11 -5 -3 -10 -1 -10 4 0
6 5 11 10 11 6 0 10 -2 10 -4z m-150 -716 c0 -5 -4 -10 -10 -10 -5 0 -10 5
-10 10 0 6 5 10 10 10 6 0 10 -4 10 -10z"/>
<path d="M1128 4433 c7 -3 16 -2 19 1 4 3 -2 6 -13 5 -11 0 -14 -3 -6 -6z"/>
<path d="M2148 3693 c7 -3 16 -2 19 1 4 3 -2 6 -13 5 -11 0 -14 -3 -6 -6z"/>
<path d="M1859 3604 c-7 -8 -21 -13 -31 -11 -12 4 -31 -7 -53 -30 -44 -45 -36
-58 8 -15 18 18 40 32 48 32 9 0 24 9 34 20 10 11 16 20 13 20 -3 0 -11 -7
-19 -16z"/>
<path d="M2030 3348 c0 -4 4 -8 9 -8 6 0 12 4 15 8 3 5 -1 9 -9 9 -8 0 -15 -4
-15 -9z"/>
<path d="M2076 3348 c3 -4 9 -8 15 -8 5 0 9 4 9 8 0 5 -7 9 -15 9 -8 0 -12 -4
-9 -9z"/>
<path d="M1834 3315 c-4 -8 -14 -15 -23 -15 -13 0 -13 -2 -2 -9 20 -13 37 -4
38 19 2 24 -5 26 -13 5z"/>
<path d="M1916 3290 c-16 -5 -17 -8 -4 -12 16 -7 45 7 32 14 -5 3 -18 2 -28
-2z"/>
<path d="M1965 3279 c-4 -5 -8 -20 -9 -32 -2 -19 3 -22 35 -24 34 -2 37 0 34
22 -1 14 3 25 9 25 6 0 4 5 -4 10 -20 13 -57 13 -65 -1z m45 -14 c-7 -8 -17
-12 -22 -9 -6 4 -5 10 3 15 22 14 33 10 19 -6z"/>
<path d="M1793 3273 c-7 -3 -13 -9 -13 -14 0 -12 47 -12 54 0 7 10 -23 20 -41
14z"/>
<path d="M1858 3113 c7 -3 16 -2 19 1 4 3 -2 6 -13 5 -11 0 -14 -3 -6 -6z"/>
<path d="M3020 2659 c0 -5 5 -7 10 -4 6 3 10 8 10 11 0 2 -4 4 -10 4 -5 0 -10
-5 -10 -11z"/>
<path d="M1790 2719 c0 -5 5 -7 10 -4 6 3 10 8 10 11 0 2 -4 4 -10 4 -5 0 -10
-5 -10 -11z"/>
<path d="M1496 2695 c4 -8 8 -15 10 -15 2 0 4 7 4 15 0 8 -4 15 -10 15 -5 0
-7 -7 -4 -15z"/>
<path d="M1535 2670 c-3 -5 -1 -10 4 -10 6 0 11 5 11 10 0 6 -2 10 -4 10 -3 0
-8 -4 -11 -10z"/>
<path d="M2500 2685 c0 -8 5 -15 10 -15 6 0 10 7 10 15 0 8 -4 15 -10 15 -5 0
-10 -7 -10 -15z"/>
<path d="M2537 2623 c-10 -9 -9 -23 2 -23 5 0 11 7 15 15 5 15 -5 20 -17 8z"/>
<path d="M1240 2380 c0 -6 7 -10 15 -10 8 0 15 2 15 4 0 2 -7 6 -15 10 -8 3
-15 1 -15 -4z"/>
<path d="M1401 2381 c-8 -6 -9 -11 -3 -15 6 -3 14 -1 17 5 9 14 2 20 -14 10z"/>
<path d="M2270 2281 c0 -5 5 -13 10 -16 6 -3 10 -2 10 4 0 5 -4 13 -10 16 -5
3 -10 2 -10 -4z"/>
<path d="M1473 2183 c9 -2 23 -2 30 0 6 3 -1 5 -18 5 -16 0 -22 -2 -12 -5z"/>
<path d="M1520 2179 c0 -5 5 -7 10 -4 6 3 10 8 10 11 0 2 -4 4 -10 4 -5 0 -10
-5 -10 -11z"/>
<path d="M2530 1497 c0 -20 -33 -47 -58 -47 -27 0 -29 -16 -3 -23 12 -3 28 4
41 18 12 13 29 21 39 18 22 -6 38 27 19 39 -20 12 -38 10 -38 -5z"/>
<path d="M2300 1412 c0 -14 6 -22 16 -22 14 0 15 3 3 18 -7 9 -15 19 -16 21
-2 2 -3 -5 -3 -17z"/>
<path d="M2141 1391 c-8 -6 -9 -11 -3 -15 6 -3 14 -1 17 5 9 14 2 20 -14 10z"/>
<path d="M2238 1373 c7 -3 16 -2 19 1 4 3 -2 6 -13 5 -11 0 -14 -3 -6 -6z"/>
<path d="M2140 1330 c-8 -5 -10 -10 -5 -10 6 0 17 5 25 10 8 5 11 10 5 10 -5
0 -17 -5 -25 -10z"/>
<path d="M2811 1424 c0 -11 3 -14 6 -6 3 7 2 16 -1 19 -3 4 -6 -2 -5 -13z"/>
<path d="M2800 1371 c0 -5 -2 -16 -5 -24 -3 -7 0 -14 8 -14 9 0 12 8 9 24 -4
23 -12 32 -12 14z"/>
<path d="M2455 1010 c3 -5 8 -10 11 -10 2 0 4 5 4 10 0 6 -5 10 -11 10 -5 0
-7 -4 -4 -10z"/>
<path d="M4496 2306 c4 -12 115 -68 122 -61 9 8 -13 35 -30 35 -10 0 -17 4
-14 9 3 4 -12 13 -33 20 -49 14 -51 14 -45 -3z"/>
<path d="M4326 2263 c-16 -17 -4 -34 22 -31 15 2 26 7 25 13 -2 11 -39 26 -47
18z"/>
<path d="M4425 2220 c-8 -13 -1 -24 14 -19 6 3 7 10 2 18 -6 10 -10 10 -16 1z"/>
<path d="M3947 2145 c-8 -7 -18 -30 -21 -49 -8 -40 -23 -55 -32 -32 -5 14 -8
14 -30 -1 -41 -27 -26 -53 31 -53 13 0 30 -9 38 -20 8 -11 17 -17 20 -13 10 9
9 43 -1 43 -4 0 -12 8 -18 18 -10 15 -6 24 17 50 16 18 34 30 40 27 7 -5 6
-12 -2 -21 -9 -11 -9 -21 -1 -37 5 -12 13 -30 16 -40 5 -15 13 -18 42 -14 19
3 37 7 40 10 7 7 -7 37 -15 33 -4 -3 -13 -1 -21 5 -11 6 -4 9 22 9 35 0 68
-20 68 -42 0 -6 10 -8 23 -5 90 21 91 21 75 -2 -8 -12 -29 -37 -46 -55 -17
-19 -28 -36 -25 -39 3 -3 2 -11 -2 -17 -5 -8 -13 -5 -26 9 -11 12 -25 21 -32
22 -43 3 -75 13 -93 30 -11 10 -27 19 -36 19 -20 0 -33 -31 -17 -41 6 -4 12
-19 12 -33 0 -34 39 -56 101 -56 25 0 48 -5 51 -10 4 -6 15 -8 25 -5 29 9 89
-5 84 -19 -3 -7 2 -19 11 -26 8 -7 15 -19 15 -26 0 -8 9 -14 20 -14 11 0 23 0
27 0 4 0 7 16 7 35 0 22 5 35 13 35 7 0 20 11 29 25 14 21 15 31 6 50 -7 14
-17 25 -23 25 -19 0 -69 41 -69 57 0 12 8 14 38 10 20 -3 30 -3 22 -1 -19 7
-62 73 -54 85 10 16 30 10 69 -21 57 -45 73 -41 73 20 0 68 -12 75 -87 50
l-60 -21 -29 21 c-17 13 -39 20 -53 18 l-24 -5 25 -10 c24 -10 23 -11 -17 -18
-54 -9 -100 1 -139 31 -35 27 -66 31 -87 9z m273 -85 c13 -11 18 -20 12 -20
-6 0 -14 5 -17 10 -3 6 -15 10 -26 10 -11 0 -17 5 -14 10 9 15 19 12 45 -10z"/>
<path d="M4450 2090 c0 -12 17 -12 45 0 17 7 15 9 -12 9 -18 1 -33 -3 -33 -9z"/>
<path d="M4090 1995 c0 -18 24 -30 40 -20 8 5 8 11 -1 21 -15 19 -39 18 -39
-1z"/>
<path d="M4423 1973 c-22 -8 -14 -23 12 -23 14 0 25 4 25 9 0 11 -21 19 -37
14z"/>
<path d="M4550 1942 c0 -12 19 -26 26 -19 2 2 -2 10 -11 17 -9 8 -15 8 -15 2z"/>
<path d="M4142 1771 c-10 -6 -5 -11 19 -20 47 -16 57 -13 30 9 -26 22 -30 23
-49 11z"/>
<path d="M1650 1140 c0 -5 5 -10 11 -10 5 0 7 5 4 10 -3 6 -8 10 -11 10 -2 0
-4 -4 -4 -10z"/>
<path d="M4620 979 c0 -11 -62 -73 -97 -96 -13 -9 -20 -19 -17 -24 3 -5 0 -9
-5 -9 -6 0 -11 -6 -11 -14 0 -8 -6 -17 -12 -19 -10 -4 -10 -7 0 -15 19 -13 42
-61 33 -67 -10 -6 -9 -71 2 -81 20 -21 -8 -134 -32 -126 -10 3 -12 0 -8 -11 3
-9 -1 -18 -9 -21 -9 -3 -12 -11 -9 -17 4 -6 -7 -28 -24 -49 -17 -21 -31 -42
-31 -45 0 -3 -19 -34 -42 -68 -24 -34 -52 -82 -63 -107 -11 -25 -28 -54 -37
-64 -13 -14 -15 -22 -7 -27 6 -4 8 -12 5 -18 -4 -6 -4 -11 1 -12 65 -8 89 -6
105 8 16 14 18 14 24 -1 5 -14 24 -16 125 -16 l118 0 1 455 c0 250 -2 455 -5
455 -3 0 -5 -5 -5 -11z m-44 -231 c5 -8 2 -9 -9 -5 -10 3 -17 2 -17 -3 0 -6
-5 -10 -11 -10 -8 0 -8 5 1 15 15 18 26 19 36 3z m-18 -422 c-7 -8 -15 -12
-17 -11 -5 6 10 25 20 25 5 0 4 -6 -3 -14z m-274 -191 c-7 -16 -24 -21 -24 -6
0 8 7 13 27 20 1 1 0 -6 -3 -14z"/>
<path d="M4400 659 c0 -5 5 -7 10 -4 6 3 10 8 10 11 0 2 -4 4 -10 4 -5 0 -10
-5 -10 -11z"/>
<path d="M4423 604 c-15 -16 -16 -24 -4 -24 8 0 24 30 19 35 -2 2 -9 -3 -15
-11z"/>
<path d="M4440 589 c-13 -24 -4 -41 10 -19 10 16 13 40 5 40 -2 0 -9 -9 -15
-21z"/>
<path d="M4316 534 c-3 -9 -1 -23 4 -32 9 -14 10 -12 4 7 -5 20 -3 23 11 17
15 -5 16 -4 5 9 -15 19 -16 19 -24 -1z"/>
<path d="M3115 340 c6 -10 -24 -72 -37 -78 -5 -2 -8 -9 -8 -16 0 -10 8 -11 35
-2 19 6 35 14 35 19 0 4 11 19 25 32 l24 25 -29 15 c-33 17 -54 20 -45 5z"/>
<path d="M3220 290 c0 -22 22 -39 28 -21 3 9 7 9 18 0 8 -6 14 -8 14 -3 0 5
-14 17 -30 26 -29 16 -30 16 -30 -2z"/>
<path d="M3650 280 c0 -5 5 -10 10 -10 6 0 10 5 10 10 0 6 -4 10 -10 10 -5 0
-10 -4 -10 -10z"/>
<path d="M2830 255 c-7 -8 -16 -13 -20 -10 -4 3 -10 -1 -13 -8 -9 -24 28 -16
40 9 13 28 11 30 -7 9z"/>
<path d="M3102 218 c-13 -13 -16 -38 -4 -38 20 1 34 18 25 34 -7 13 -12 13
-21 4z"/>
<path d="M2748 180 c-7 -24 -3 -38 8 -28 3 4 4 17 2 30 l-3 23 -7 -25z"/>
<path d="M2953 101 c0 -11 5 -18 9 -15 4 3 5 11 1 19 -7 21 -12 19 -10 -4z"/>
<path d="M3170 90 c-9 -6 -10 -10 -3 -10 6 0 15 5 18 10 8 12 4 12 -15 0z"/>
</g>
</svg>
